<svg width="37" height="37" viewBox="0 0 37 37" fill="none" xmlns="http://www.w3.org/2000/svg">
<g id="feather:upload-cloud" clip-path="url(#clip0_102_44)">
<g id="Group">
<path id="Vector" d="M24.7976 24.737L18.7586 18.698L12.7197 24.737" stroke="black" stroke-opacity="0.4" stroke-width="1.50974" stroke-linecap="round" stroke-linejoin="round"/>
<path id="Vector_2" d="M18.7586 18.698V32.2857" stroke="black" stroke-opacity="0.4" stroke-width="1.50974" stroke-linecap="round" stroke-linejoin="round"/>
<path id="Vector_3" d="M31.4253 28.3453C32.8978 27.5425 34.0611 26.2722 34.7315 24.7349C35.4019 23.1976 35.5412 21.4808 35.1275 19.8555C34.7138 18.2302 33.7707 16.789 32.4469 15.7593C31.1232 14.7295 29.4942 14.1699 27.817 14.1688H25.9148C25.4578 12.4013 24.6061 10.7603 23.4236 9.36935C22.2412 7.97836 20.7588 6.87353 19.0879 6.13792C17.417 5.40231 15.6011 5.05506 13.7766 5.12228C11.9522 5.1895 10.1668 5.66944 8.55454 6.52601C6.9423 7.38259 5.54523 8.59351 4.46835 10.0677C3.39146 11.542 2.6628 13.2411 2.33713 15.0375C2.01147 16.8339 2.09727 18.6807 2.5881 20.4392C3.07893 22.1976 3.96201 23.8219 5.17095 25.1899" stroke="black" stroke-opacity="0.4" stroke-width="1.50974" stroke-linecap="round" stroke-linejoin="round"/>
<path id="Vector_4" d="M24.7976 24.737L18.7586 18.698L12.7197 24.737" stroke="black" stroke-opacity="0.4" stroke-width="1.50974" stroke-linecap="round" stroke-linejoin="round"/>
</g>
</g>
<defs>
<clipPath id="clip0_102_44">
<rect width="36.2338" height="36.2338" fill="white" transform="translate(0.641724 0.581161)"/>
</clipPath>
</defs>
</svg>
